<svg width="24" height="24" viewBox="0 0 24 24" fill="none" xmlns="http://www.w3.org/2000/svg">
<path d="M8.582 5.377H7.082C6.087 5.377 5.281 6.217 5.281 7.252V9.436C5.281 10.478 4.811 11.405 4.08 12C4.45771 12.3116 4.76135 12.7033 4.9689 13.1468C5.17646 13.5903 5.28273 14.0744 5.28 14.564V16.748C5.28 17.783 6.087 18.623 7.081 18.623H8.581V20H7.081C5.357 20 3.959 18.544 3.959 16.748V14.564C3.959 13.528 3.153 12.688 2.159 12.688H2V11.312H2.159C3.153 11.312 3.959 10.472 3.959 9.436V7.252C3.96 5.456 5.357 4 7.081 4H8.581L8.582 5.377ZM16.919 4C18.643 4 20.041 5.456 20.041 7.252V9.436C20.041 10.472 20.847 11.312 21.841 11.312H22V12.688H21.841C20.847 12.688 20.041 13.528 20.041 14.564V16.748C20.041 18.544 18.643 20 16.919 20H15.419V18.623H16.919C17.913 18.623 18.719 17.783 18.719 16.748V14.564C18.719 13.522 19.189 12.595 19.92 12C19.5423 11.6884 19.2386 11.2967 19.0311 10.8532C18.8235 10.4097 18.7173 9.92563 18.72 9.436V7.252C18.72 6.216 17.913 5.377 16.919 5.377H15.419V4H16.919ZM10.303 14.402C10.528 15.156 11.203 15.703 12.001 15.703C12.799 15.703 13.473 15.156 13.698 14.403H14.545C14.301 15.633 13.255 16.558 12.001 16.558C10.747 16.558 9.701 15.633 9.457 14.402H10.303Z" fill="currentColor"/>
<path fill-rule="evenodd" clip-rule="evenodd" d="M8.708 7.798C9.945 7.798 10.948 8.843 10.948 10.133C10.948 11.423 9.945 12.469 8.708 12.469C7.471 12.469 6.467 11.423 6.467 10.133C6.467 8.843 7.47 7.798 8.707 7.798M8.707 8.652C7.922 8.652 7.287 9.315 7.287 10.133C7.287 10.951 7.922 11.613 8.707 11.613C9.492 11.613 10.127 10.951 10.127 10.133C10.127 9.315 9.491 8.652 8.707 8.652ZM15.287 7.798C16.524 7.798 17.527 8.843 17.527 10.133C17.527 11.423 16.524 12.469 15.287 12.469C14.05 12.469 13.046 11.423 13.046 10.133C13.046 8.843 14.05 7.798 15.287 7.798ZM15.286 8.652C14.501 8.652 13.865 9.315 13.865 10.133C13.865 10.951 14.501 11.613 15.285 11.613C16.07 11.613 16.706 10.951 16.706 10.133C16.706 9.315 16.07 8.652 15.286 8.652Z" fill="currentColor"/>
</svg>

