<svg xmlns="http://www.w3.org/2000/svg" fill="none" viewBox="0 0 24 24" width="24px" height="24px"><path fill="#000" d="M20.25 4.96C20.01 3.83 18.98 3 17.81 3H6.2C5.03 3 4 3.82 3.76 4.96c-1 4.67-1 9.41 0 14.09.24 1.13 1.27 1.96 2.44 1.96h11.61c1.17 0 2.2-.82 2.44-1.96 1-4.67 1-9.41 0-14.09m-1.96 13.67c-.05.22-.25.37-.49.37H6.2c-.24 0-.44-.16-.49-.37-.94-4.4-.94-8.86 0-13.25.05-.22.25-.37.49-.37h11.61c.24 0 .44.16.49.37.94 4.4.94 8.86 0 13.25z"/><path fill="#000" d="m15.19 8.92-1.94 2.71-2.19-1.46a1 1 0 0 0-1.37.25l-2.5 3.5A1.007 1.007 0 0 0 8 15.51c.31 0 .62-.15.81-.42l1.94-2.71 2.19 1.46c.45.3 1.05.19 1.37-.25l2.5-3.5c.32-.45.22-1.07-.23-1.4-.45-.32-1.07-.22-1.4.23z"/></svg>