<svg width="24" height="24" viewBox="0 0 24 24" fill="none" xmlns="http://www.w3.org/2000/svg">
<g clip-path="url(#clip0_155_13029)">
<path d="M18 11L17.9998 10.9454C18.6887 11.1007 19.4437 10.9244 19.9816 10.4195C19.9938 10.6114 20 10.805 20 11C20 13.125 19.2635 15.078 18.0319 16.6177L20.7071 19.2929C21.0976 19.6834 21.0976 20.3166 20.7071 20.7071C20.3166 21.0976 19.6834 21.0976 19.2929 20.7071L16.6177 18.0319C15.078 19.2635 13.125 20 11 20C6.02944 20 2 15.9706 2 11C2 6.02944 6.02944 2 11 2C12.5478 2 14.0044 2.39074 15.2765 3.07897L14.3214 3.48719C13.8564 3.68599 13.5139 4.00658 13.2942 4.38463C12.5755 4.1354 11.8036 4 11 4C7.13401 4 4 7.13401 4 11C4 14.866 7.13401 18 11 18C14.866 18 18 14.866 18 11Z" fill="black"/>
<path d="M19.0044 2.32673C18.8172 1.89109 18.198 1.89109 18.0109 2.32673L17.2956 3.99112C17.2409 4.11839 17.1393 4.21973 17.0117 4.27428L15.3276 4.99409C14.8931 5.17985 14.8901 5.79313 15.3228 5.98299L16.9428 6.69389C17.0645 6.74726 17.1621 6.84354 17.2172 6.96423L18.001 8.68404C18.1953 9.11038 18.8049 9.10375 18.9899 8.67331L19.7196 6.97501C19.7743 6.84774 19.876 6.7464 20.0036 6.69185L21.6724 5.97851C22.1092 5.79184 22.1092 5.17429 21.6724 4.98762L20.0036 4.27428C19.876 4.21973 19.7743 4.11839 19.7196 3.99112L19.0044 2.32673Z" fill="black"/>
</g>
<defs>
<clipPath id="clip0_155_13029">
<rect width="24" height="24" fill="white"/>
</clipPath>
</defs>
</svg>
