<svg width="24" height="24" viewBox="0 0 24 24" fill="none" xmlns="http://www.w3.org/2000/svg">
<path fill-rule="evenodd" clip-rule="evenodd" d="M12 2C12.5523 2 13 2.44772 13 3V4.06348C16.6185 4.51479 19.4842 7.3815 19.9355 11H21C21.5523 11 22 11.4477 22 12C22 12.5523 21.5523 13 21 13H19.9355C19.4842 16.6185 16.6185 19.4842 13 19.9355V21C13 21.5523 12.5523 22 12 22C11.4477 22 11 21.5523 11 21V19.9355C7.38154 19.4842 4.51581 16.6185 4.06445 13H3C2.44772 13 2 12.5523 2 12C2 11.4477 2.44772 11 3 11H4.06445C4.51582 7.3815 7.38148 4.51479 11 4.06348V3C11 2.44772 11.4477 2 12 2ZM13 7C13 7.55228 12.5523 8 12 8C11.4477 8 11 7.55228 11 7V6.08398C8.48768 6.50554 6.50659 8.48771 6.08496 11H7C7.55228 11 8 11.4477 8 12C8 12.5523 7.55228 13 7 13H6.08496C6.50658 15.5122 8.48776 17.4934 11 17.915V17C11 16.4477 11.4477 16 12 16C12.5523 16 13 16.4477 13 17V17.915C15.5122 17.4934 17.4934 15.5122 17.915 13H17C16.4477 13 16 12.5523 16 12C16 11.4477 16.4477 11 17 11H17.915C17.4934 8.48771 15.5123 6.50554 13 6.08398V7Z" fill="black" style="fill:black;fill-opacity:1;"/>
</svg>
