<svg xmlns="http://www.w3.org/2000/svg" fill="none" viewBox="0 0 24 24" width="24px" height="24px"><path fill="#000" d="m2.59 8.41 8.59 3.82c.26.12.54.17.81.17s.55-.06.81-.17l8.59-3.82a.998.998 0 0 0 0-1.82L12.8 2.77c-.52-.23-1.11-.23-1.63 0L2.58 6.59a.998.998 0 0 0 0 1.82zM12 4.59l6.54 2.91L12 10.41 5.46 7.5z"/><path fill="#000" d="M20.59 11.09 12 14.91l-8.59-3.82a1 1 0 1 0-.81 1.83l8.59 3.82c.26.12.54.17.81.17s.55-.06.81-.17l8.59-3.82c.5-.22.73-.81.51-1.32-.22-.5-.81-.73-1.32-.51"/><path fill="#000" d="M20.59 15.59 12 19.41l-8.59-3.82a.99.99 0 0 0-1.32.51 1 1 0 0 0 .51 1.32l8.59 3.82c.26.12.54.17.81.17s.55-.06.81-.17l8.59-3.82c.5-.22.73-.81.51-1.32-.22-.5-.81-.73-1.32-.51"/></svg>