<svg xmlns="http://www.w3.org/2000/svg" fill="none" viewBox="0 0 24 24" width="24px" height="24px"><g fill="#000" clip-path="url(#a)"><path d="M12 10a2 2 0 1 1 0 4 2 2 0 0 1 0-4"/><path fill-rule="evenodd" d="M5.677 7.756c3.537-3.675 9.11-3.675 12.646 0l3.395 3.526a1.054 1.054 0 0 1 0 1.436l-3.395 3.526c-3.537 3.674-9.11 3.674-12.646 0l-3.395-3.526a1.054 1.054 0 0 1 0-1.436zM12 8a4 4 0 1 0 0 8 4 4 0 0 0 0-8" clip-rule="evenodd"/></g><defs><clipPath id="a"><path fill="#fff" d="M0 0h24v24H0z"/></clipPath></defs></svg>