<svg xmlns="http://www.w3.org/2000/svg" fill="none" viewBox="0 0 24 24" width="24px" height="24px"><path fill="#000" d="M10.71 21.92c.4.06.8.08 1.2.08 2.2 0 4.3-.85 5.79-2.38 2.13-2.18 3.23-6.73 1.31-10.28-.2-.36-.6-.57-1.01-.52a.99.99 0 0 0-.84.76c-.35 1.48-1.02 2.63-1.76 3-.06.03-.13.06-.19.08.48-2.64.68-7.81-4.22-10.53a1 1 0 0 0-1.04.04c-.31.2-.48.56-.45.94.17 1.71-1.09 3.29-2.42 4.96-1.96 2.46-4.41 5.53-2.27 9.83 1.17 2.19 3.32 3.65 5.89 4.02zM8.65 9.31c1.11-1.4 2.26-2.83 2.69-4.48 2.91 2.69 2.07 7.02 1.7 8.42-.13.48.11.98.56 1.17.91.4 1.84.38 2.7-.04.64-.32 1.21-.86 1.69-1.59.18 2.1-.55 4.25-1.71 5.44-1.32 1.35-3.29 1.99-5.28 1.71-1.94-.27-3.54-1.36-4.4-2.95-1.56-3.13.11-5.24 2.05-7.67z"/></svg>