<svg width="24" height="24" viewBox="0 0 24 24" fill="none" xmlns="http://www.w3.org/2000/svg">
<g clip-path="url(#clip0_33206_123041)">
<path d="M6.23145 10.418C6.72783 10.7817 7.33846 11 8.00098 11C8.04927 11 8.09777 10.9984 8.14551 10.9961L6.76953 15.5811C6.27346 15.2178 5.66289 15.0011 5.00098 15.001C4.95229 15.001 4.90262 15.0016 4.85449 15.0039L6.23145 10.418ZM14.709 13.2949C14.0907 13.5907 13.5905 14.0906 13.2949 14.709L9.29004 10.7041C9.90872 10.4085 10.4092 9.90955 10.7051 9.29102L14.709 13.2949ZM17.2305 8.41895C17.7269 8.78272 18.3384 9 19.001 9C19.0493 8.99998 19.0978 8.99836 19.1455 8.99609L17.7705 13.5811C17.2742 13.2173 16.6634 13.0002 16.001 13C15.9521 13 15.9028 13.0006 15.8545 13.0029L17.2305 8.41895Z" fill="#1C2B33" style="fill:#1C2B33;fill:color(display-p3 0.1098 0.1686 0.2000);fill-opacity:1;"/>
<path d="M5.00098 15.001C6.65783 15.001 8 16.3441 8 18.001C7.99993 19.6578 6.65681 21.001 5 21.001C3.34319 21.001 2.00007 19.6578 2 18.001C2 16.3441 3.34412 15.001 5.00098 15.001ZM5 17C4.47869 17 4.05126 17.399 4.00488 17.9082C4.00208 17.9387 4 17.9697 4 18.001C4.00007 18.5532 4.44776 19.001 5 19.001C5.55224 19.001 5.99993 18.5532 6 18.001C6 17.9697 5.99889 17.9387 5.99609 17.9082C5.94976 17.3989 5.52135 17 5 17ZM16.001 13C17.6578 13 19 14.3432 19 16C19 17.6568 17.6568 19 16 19C14.3431 19 13 17.6569 13 16C13 14.3431 14.3441 13 16.001 13ZM15.8975 15.0049C15.5278 15.0425 15.2173 15.2815 15.0781 15.6104C15.0527 15.6703 15.0338 15.7336 15.0205 15.7988C15.0139 15.8312 15.0083 15.864 15.0049 15.8975C15.0015 15.9312 15 15.9654 15 16C15 16.0346 15.0015 16.0688 15.0049 16.1025C15.0083 16.136 15.0139 16.1688 15.0205 16.2012C15.0338 16.2664 15.0527 16.3297 15.0781 16.3896C15.23 16.7485 15.5859 17 16 17C16.0346 17 16.0688 16.9985 16.1025 16.9951C16.5729 16.9472 16.9472 16.5729 16.9951 16.1025C16.9985 16.0688 17 16.0346 17 16C17 15.9654 16.9985 15.9312 16.9951 15.8975C16.9438 15.3933 16.5177 15 16 15C15.9654 15 15.9312 15.0015 15.8975 15.0049ZM8 5C9.65683 5.00003 11 6.34317 11 8C11 9.65683 9.6578 11 8.00098 11C6.34412 11 5 9.65685 5 8C5 6.34315 6.34315 5 8 5ZM7.89746 7.00488C7.52784 7.0425 7.2173 7.28151 7.07812 7.61035C7.05275 7.67032 7.03384 7.73356 7.02051 7.79883C7.0139 7.83119 7.00829 7.86404 7.00488 7.89746C7.00145 7.93116 7 7.96539 7 8C7 8.03461 7.00145 8.06884 7.00488 8.10254C7.00829 8.13596 7.0139 8.16881 7.02051 8.20117C7.03384 8.26644 7.05275 8.32968 7.07812 8.38965C7.22998 8.74846 7.58586 9 8 9C8.03461 9 8.06884 8.99855 8.10254 8.99512C8.57294 8.94719 8.94722 8.57295 8.99512 8.10254C8.99855 8.06884 9 8.03461 9 8C9 7.96539 8.99855 7.93116 8.99512 7.89746C8.94379 7.39335 8.51765 7.00003 8 7C7.96539 7 7.93116 7.00145 7.89746 7.00488ZM19 3C20.6568 3.00003 22 4.34317 22 6C22 7.65683 20.6578 8.99997 19.001 9C17.3441 9 16 7.65685 16 6C16 4.34315 17.3431 3 19 3ZM18.8975 5.00488C18.5278 5.0425 18.2173 5.28151 18.0781 5.61035C18.0527 5.67032 18.0338 5.73356 18.0205 5.79883C18.0139 5.83119 18.0083 5.86404 18.0049 5.89746C18.0015 5.93116 18 5.96539 18 6C18 6.03461 18.0015 6.06884 18.0049 6.10254C18.0083 6.13596 18.0139 6.16881 18.0205 6.20117C18.0338 6.26644 18.0527 6.32968 18.0781 6.38965C18.23 6.74846 18.5859 7 19 7C19.0346 7 19.0688 6.99855 19.1025 6.99512C19.5729 6.94719 19.9472 6.57295 19.9951 6.10254C19.9985 6.06884 20 6.03461 20 6C20 5.96539 19.9985 5.93116 19.9951 5.89746C19.9438 5.39335 19.5177 5.00003 19 5C18.9654 5 18.9312 5.00145 18.8975 5.00488Z" fill="#1C2B33" style="fill:#1C2B33;fill:color(display-p3 0.1098 0.1686 0.2000);fill-opacity:1;"/>
</g>
<defs>
<clipPath id="clip0_33206_123041">
<rect width="24" height="24" fill="white" style="fill:white;fill-opacity:1;"/>
</clipPath>
</defs>
</svg>
