<svg width="24" height="24" viewBox="0 0 24 24" fill="none" xmlns="http://www.w3.org/2000/svg">
<g clip-path="url(#clip0_33206_123045)">
<path d="M19 3C20.6568 3.00003 22 4.34317 22 6C22 7.60889 20.7339 8.92141 19.1436 8.99609L17.7705 13.5811C17.7665 13.5781 17.7619 13.5752 17.7578 13.5723C18.5094 14.1174 19 15.0004 19 16C19 17.6568 17.6568 19 16 19C14.3431 19 13 17.6569 13 16C13 15.5372 13.1077 15.1004 13.2949 14.709L9.29102 10.7051C8.94033 10.8727 8.55346 10.9768 8.14355 10.9961L6.76953 15.5811C6.76454 15.5774 6.75892 15.5739 6.75391 15.5703C7.50776 16.1152 8 16.9996 8 18.001C7.99993 19.6578 6.65681 21.001 5 21.001L4.8457 20.9971C3.26059 20.9168 2.00006 19.606 2 18.001C2 16.3441 3.34412 15.001 5.00098 15.001C4.95245 15.001 4.90343 15.0016 4.85547 15.0039L6.22949 10.418C5.48514 9.87203 5 8.99371 5 8C5 6.34315 6.34315 5 8 5L8.1543 5.00391C9.73942 5.08424 11 6.39492 11 8C11 8.46277 10.8922 8.89962 10.7051 9.29102L14.708 13.2939C15.0996 13.1066 15.5379 13 16.001 13C15.9521 13 15.9028 13.0006 15.8545 13.0029L17.2305 8.41895C17.2316 8.41979 17.2332 8.42005 17.2344 8.4209C16.4874 7.87522 16 6.99575 16 6C16 4.34315 17.3431 3 19 3Z" fill="black" style="fill:black;fill-opacity:1;"/>
</g>
<defs>
<clipPath id="clip0_33206_123045">
<rect width="24" height="24" fill="white" style="fill:white;fill-opacity:1;"/>
</clipPath>
</defs>
</svg>
