<svg xmlns="http://www.w3.org/2000/svg" fill="none" viewBox="0 0 24 24" width="24px" height="24px"><path fill="#000" d="M14.39 3.87a3.507 3.507 0 0 0-4.79 0L4.26 8.88C3.46 9.63 3 10.7 3 11.8v6.5c0 1.18.82 2.21 1.96 2.45.91.19 1.86.35 2.81.47.08.01.16.02.24.02.48 0 .95-.17 1.31-.5.43-.38.68-.93.68-1.51V16c0-.55.45-1 1-1h2c.55 0 1 .45 1 1v3.23c0 .58.25 1.12.68 1.51.43.38.99.55 1.56.48.95-.12 1.9-.28 2.81-.47 1.13-.24 1.96-1.27 1.96-2.45v-6.5c0-1.1-.46-2.17-1.26-2.92l-5.34-5.01zM19 18.3c0 .24-.16.45-.38.49-.86.18-1.74.33-2.62.44V16c0-1.65-1.35-3-3-3h-2c-1.65 0-3 1.35-3 3v3.24c-.88-.11-1.77-.26-2.63-.45A.49.49 0 0 1 5 18.3v-6.5c0-.55.23-1.08.63-1.46l5.34-5.01c.29-.27.66-.4 1.03-.4s.74.13 1.03.4l5.34 5.01c.4.38.63.91.63 1.46z"/></svg>