<svg width="24" height="24" viewBox="0 0 24 24" fill="none" xmlns="http://www.w3.org/2000/svg">
<g clip-path="url(#clip0_2741_78579)">
<path fill-rule="evenodd" clip-rule="evenodd" d="M12 22C6.47715 22 2 17.5228 2 12C2 6.47715 6.47715 2 12 2C17.5228 2 22 6.47715 22 12C22 17.5228 17.5228 22 12 22ZM12 9.00293C12.8332 9.00293 13.2499 8.6028 13.25 8.00293C13.25 7.40293 12.8333 7.00293 12 7.00293C11.1667 7.00293 10.75 7.40293 10.75 8.00293C10.7501 8.6028 11.1668 9.00293 12 9.00293ZM12 17.002C12.4832 17.002 12.875 16.6102 12.875 16.127V11.1523C12.875 10.6691 12.4832 10.2773 12 10.2773C11.5168 10.2773 11.125 10.6691 11.125 11.1523V16.127C11.125 16.6102 11.5168 17.002 12 17.002Z" fill="black"/>
</g>
<defs>
<clipPath id="clip0_2741_78579">
<rect width="24" height="24" fill="white"/>
</clipPath>
</defs>
</svg>
