<svg width="24" height="24" viewBox="0 0 24 24" fill="none" xmlns="http://www.w3.org/2000/svg">
<g clip-path="url(#clip0_2741_78577)">
<path d="M12 10.2776C12.483 10.2779 12.875 10.6695 12.875 11.1526V16.1272C12.875 16.6103 12.483 17.0019 12 17.0022C11.5168 17.0022 11.125 16.6104 11.125 16.1272V11.1526C11.125 10.6693 11.5168 10.2776 12 10.2776Z" fill="black"/>
<path d="M12 7.00317C12.833 7.00333 13.25 7.40329 13.25 8.00317C13.2499 8.60293 12.8329 9.00302 12 9.00317C11.1668 9.00317 10.7501 8.60305 10.75 8.00317C10.75 7.40317 11.1667 7.00317 12 7.00317Z" fill="black"/>
<path fill-rule="evenodd" clip-rule="evenodd" d="M12 2.00024C17.5228 2.00024 22 6.4774 22 12.0002C22 17.5231 17.5228 22.0002 12 22.0002C6.47715 22.0002 2 17.5231 2 12.0002C2 6.4774 6.47715 2.00024 12 2.00024ZM12 4.00024C7.58172 4.00024 4 7.58197 4 12.0002C4 16.4185 7.58172 20.0002 12 20.0002C16.4183 20.0002 20 16.4185 20 12.0002C20 7.58197 16.4183 4.00024 12 4.00024Z" fill="black"/>
</g>
<defs>
<clipPath id="clip0_2741_78577">
<rect width="24" height="24" fill="white"/>
</clipPath>
</defs>
</svg>
