<svg xmlns="http://www.w3.org/2000/svg" style="display:none">
  <!-- House Icons -->
  <symbol id="house-outline" viewBox="0 0 24 24">
    <path fill="currentColor" d="M14.39 3.87a3.507 3.507 0 0 0-4.79 0L4.26 8.88C3.46 9.63 3 10.7 3 11.8v6.5c0 1.18.82 2.21 1.96 2.45.91.19 1.86.35 2.81.47.08.01.16.02.24.02.48 0 .95-.17 1.31-.5.43-.38.68-.93.68-1.51V16c0-.55.45-1 1-1h2c.55 0 1 .45 1 1v3.23c0 .58.25 1.12.68 1.51.43.38.99.55 1.56.48.95-.12 1.9-.28 2.81-.47 1.13-.24 1.96-1.27 1.96-2.45v-6.5c0-1.1-.46-2.17-1.26-2.92l-5.34-5.01zM19 18.3c0 .24-.16.45-.38.49-.86.18-1.74.33-2.62.44V16c0-1.65-1.35-3-3-3h-2c-1.65 0-3 1.35-3 3v3.24c-.88-.11-1.77-.26-2.63-.45A.49.49 0 0 1 5 18.3v-6.5c0-.55.23-1.08.63-1.46l5.34-5.01c.29-.27.66-.4 1.03-.4s.74.13 1.03.4l5.34 5.01c.4.38.63.91.63 1.46z"/>
  </symbol>
  <symbol id="house-filled" viewBox="0 0 24 24">
    <path fill="currentColor" d="M14.39 3.87a3.507 3.507 0 0 0-4.79 0L4.26 8.88C3.46 9.63 3 10.7 3 11.8v6.5c0 1.18.82 2.21 1.96 2.45.91.19 1.86.35 2.81.47.08.01.16.02.24.02.48 0 .95-.17 1.31-.5.43-.38.68-.93.68-1.51V16c0-.55.45-1 1-1h2c.55 0 1 .45 1 1v3.23c0 .58.25 1.12.68 1.51.43.38.99.55 1.56.48.95-.12 1.9-.28 2.81-.47 1.13-.24 1.96-1.27 1.96-2.45v-6.5c0-1.1-.46-2.17-1.26-2.92l-5.34-5.01z"/>
  </symbol>

  <!-- Plus Icons -->
  <symbol id="plus-outline" viewBox="0 0 24 24">
    <path fill="currentColor" d="M12 20c.55 0 1-.45 1-1v-6h6c.55 0 1-.45 1-1s-.45-1-1-1h-6V5c0-.55-.45-1-1-1s-1 .45-1 1v6H5c-.55 0-1 .45-1 1s.45 1 1 1h6v6c0 .55.45 1 1 1"/>
  </symbol>
  <symbol id="plus-filled" viewBox="0 0 24 24">
    <path fill="currentColor" d="M12 20c.55 0 1-.45 1-1v-6h6c.55 0 1-.45 1-1s-.45-1-1-1h-6V5c0-.55-.45-1-1-1s-1 .45-1 1v6H5c-.55 0-1 .45-1 1s.45 1 1 1h6v6c0 .55.45 1 1 1"/>
  </symbol>

  <!-- Star Circle Triangle AI Icons -->
  <symbol id="star-ai-outline" viewBox="0 0 24 24">
    <path fill="currentColor" d="m13.45 15.11-3.04-1.52-1.52-3.04c-.34-.68-1.45-.68-1.79 0l-1.52 3.04-3.04 1.52a1 1 0 0 0-.55.89c0 .37.21.73.55.89l3.04 1.52 1.52 3.04a1 1 0 0 0 .89.55c.37 0 .73-.21.89-.55l1.52-3.04 3.04-1.52a1 1 0 0 0 .55-.89c0-.37-.21-.73-.55-.89zm-4.23 1.66c-.19.1-.35.25-.45.45L8 18.76l-.77-1.54c-.1-.19-.25-.35-.45-.45L5.24 16l1.54-.77c.19-.1.35-.25.45-.45L8 13.24l.77 1.54c.1.19.25.35.45.45l1.54.77zM8 5.5C8 7.43 9.57 9 11.5 9S15 7.43 15 5.5 13.43 2 11.5 2 8 3.57 8 5.5m5 0c0 .83-.67 1.5-1.5 1.5S10 6.33 10 5.5 10.67 4 11.5 4s1.5.67 1.5 1.5m7.22 2.55a1.008 1.008 0 0 0-1.64-.44l-4.33 4.04c-.27.25-.38.62-.29.97s.36.63.71.72l6.06 1.62c.09.02.17.03.26.03.27 0 .53-.11.72-.31.25-.26.34-.64.24-.99l-1.73-5.66zm-3.28 3.83 1.84-1.72.74 2.41z"/>
  </symbol>
  <symbol id="star-ai-filled" viewBox="0 0 24 24">
    <path fill="currentColor" d="m7.11 10.55-1.52 3.04-3.04 1.52A1 1 0 0 0 2 16c0 .37.21.73.55.89l3.04 1.52 1.52 3.04A1 1 0 0 0 8 22c.37 0 .73-.21.89-.55l1.52-3.04 3.04-1.52A1 1 0 0 0 14 16c0-.37-.21-.73-.55-.89l-3.04-1.52-1.52-3.04c-.34-.68-1.45-.68-1.79 0zM11.5 9a3.5 3.5 0 1 0 0-7 3.5 3.5 0 0 0 0 7m8.72-.95a1.008 1.008 0 0 0-1.64-.44l-4.33 4.04c-.27.25-.38.62-.29.97s.36.63.71.72l6.06 1.62c.09.02.17.03.26.03.27 0 .53-.11.72-.31.25-.26.34-.64.24-.99l-1.73-5.66z"/>
  </symbol>

  <!-- Three Concentric Circles Icons -->
  <symbol id="circles-outline" viewBox="0 0 24 24">
    <path fill="currentColor" d="M12 2C6.49 2 2 6.49 2 12s4.49 10 10 10 10-4.49 10-10S17.51 2 12 2m0 18c-4.41 0-8-3.59-8-8s3.59-8 8-8 8 3.59 8 8-3.59 8-8 8"/>
    <path fill="currentColor" d="M12 6c-3.31 0-6 2.69-6 6s2.69 6 6 6 6-2.69 6-6-2.69-6-6-6m0 10c-2.21 0-4-1.79-4-4s1.79-4 4-4 4 1.79 4 4-1.79 4-4 4"/>
    <path fill="currentColor" d="M12 14a2 2 0 1 0 0-4 2 2 0 0 0 0 4"/>
  </symbol>
  <symbol id="circles-filled" viewBox="0 0 24 24">
    <path fill="currentColor" d="M12 2C6.49 2 2 6.49 2 12s4.49 10 10 10 10-4.49 10-10S17.51 2 12 2m0 18c-4.41 0-8-3.59-8-8s3.59-8 8-8 8 3.59 8 8-3.59 8-8 8"/>
    <path fill="currentColor" d="M12 6c-3.31 0-6 2.69-6 6s2.69 6 6 6 6-2.69 6-6-2.69-6-6-6m0 10c-2.21 0-4-1.79-4-4s1.79-4 4-4 4 1.79 4 4-1.79 4-4 4"/>
    <path fill="currentColor" d="M12 14a2 2 0 1 0 0-4 2 2 0 0 0 0 4"/>
  </symbol>

  <!-- Four Dots Three Lines Connected Icons -->
  <symbol id="dots-lines-outline" viewBox="0 0 24 24">
    <path fill="currentColor" d="M6.23145 10.418C6.72783 10.7817 7.33846 11 8.00098 11C8.04927 11 8.09777 10.9984 8.14551 10.9961L6.76953 15.5811C6.27346 15.2178 5.66289 15.0011 5.00098 15.001C4.95229 15.001 4.90262 15.0016 4.85449 15.0039L6.23145 10.418ZM14.709 13.2949C14.0907 13.5907 13.5905 14.0906 13.2949 14.709L9.29004 10.7041C9.90872 10.4085 10.4092 9.90955 10.7051 9.29102L14.709 13.2949ZM17.2305 8.41895C17.7269 8.78272 18.3384 9 19.001 9C19.0493 8.99998 19.0978 8.99836 19.1455 8.99609L17.7705 13.5811C17.2742 13.2173 16.6634 13.0002 16.001 13C15.9521 13 15.9028 13.0006 15.8545 13.0029L17.2305 8.41895Z"/>
    <path fill="currentColor" d="M5.00098 15.001C6.65783 15.001 8 16.3441 8 18.001C7.99993 19.6578 6.65681 21.001 5 21.001C3.34319 21.001 2.00007 19.6578 2 18.001C2 16.3441 3.34412 15.001 5.00098 15.001ZM5 17C4.44776 17 4 17.4478 4 18.001C4.00007 18.5532 4.44776 19.001 5 19.001C5.55224 19.001 5.99993 18.5532 6 18.001C6 17.4478 5.55224 17 5 17ZM16.001 13C17.6578 13 19 14.3432 19 16C19 17.6568 17.6568 19 16 19C14.3431 19 13 17.6569 13 16C13 14.3431 14.3441 13 16.001 13ZM16 15C15.4478 15 15 15.4478 15 16C15 16.5522 15.4478 17 16 17C16.5522 17 17 16.5522 17 16C17 15.4478 16.5522 15 16 15ZM8 5C9.65683 5.00003 11 6.34317 11 8C11 9.65683 9.6578 11 8.00098 11C6.34412 11 5 9.65685 5 8C5 6.34315 6.34315 5 8 5ZM8 7C7.44776 7 7 7.44776 7 8C7 8.55224 7.44776 9 8 9C8.55224 9 9 8.55224 9 8C9 7.44776 8.55224 7 8 7ZM19 3C20.6568 3.00003 22 4.34317 22 6C22 7.65683 20.6578 8.99997 19.001 9C17.3441 9 16 7.65685 16 6C16 4.34315 17.3431 3 19 3ZM19 5C18.4478 5 18 5.44776 18 6C18 6.55224 18.4478 7 19 7C19.5522 7 20 6.55224 20 6C20 5.44776 19.5522 5 19 5Z"/>
  </symbol>
  <symbol id="dots-lines-filled" viewBox="0 0 24 24">
    <path fill="currentColor" d="M19 3C20.6568 3.00003 22 4.34317 22 6C22 7.60889 20.7339 8.92141 19.1436 8.99609L17.7705 13.5811C17.7665 13.5781 17.7619 13.5752 17.7578 13.5723C18.5094 14.1174 19 15.0004 19 16C19 17.6568 17.6568 19 16 19C14.3431 19 13 17.6569 13 16C13 15.5372 13.1077 15.1004 13.2949 14.709L9.29102 10.7051C8.94033 10.8727 8.55346 10.9768 8.14355 10.9961L6.76953 15.5811C6.76454 15.5774 6.75892 15.5739 6.75391 15.5703C7.50776 16.1152 8 16.9996 8 18.001C7.99993 19.6578 6.65681 21.001 5 21.001L4.8457 20.9971C3.26059 20.9168 2.00006 19.606 2 18.001C2 16.3441 3.34412 15.001 5.00098 15.001C4.95245 15.001 4.90343 15.0016 4.85547 15.0039L6.22949 10.418C5.48514 9.87203 5 8.99371 5 8C5 6.34315 6.34315 5 8 5L8.1543 5.00391C9.73942 5.08424 11 6.39492 11 8C11 8.46277 10.8922 8.89962 10.7051 9.29102L14.708 13.2939C15.0996 13.1066 15.5379 13 16.001 13C15.9521 13 15.9028 13.0006 15.8545 13.0029L17.2305 8.41895C17.2316 8.41979 17.2332 8.42005 17.2344 8.4209C16.4874 7.87522 16 6.99575 16 6C16 4.34315 17.3431 3 19 3Z"/>
  </symbol>

  <!-- Circle Four Lines Icons -->
  <symbol id="target-outline" viewBox="0 0 24 24">
    <path fill="currentColor" fill-rule="evenodd" clip-rule="evenodd" d="M12 2C12.5523 2 13 2.44772 13 3V4.06348C16.6185 4.51479 19.4842 7.3815 19.9355 11H21C21.5523 11 22 11.4477 22 12C22 12.5523 21.5523 13 21 13H19.9355C19.4842 16.6185 16.6185 19.4842 13 19.9355V21C13 21.5523 12.5523 22 12 22C11.4477 22 11 21.5523 11 21V19.9355C7.38154 19.4842 4.51581 16.6185 4.06445 13H3C2.44772 13 2 12.5523 2 12C2 11.4477 2.44772 11 3 11H4.06445C4.51582 7.3815 7.38148 4.51479 11 4.06348V3C11 2.44772 11.4477 2 12 2ZM13 7C13 7.55228 12.5523 8 12 8C11.4477 8 11 7.55228 11 7V6.08398C8.48768 6.50554 6.50659 8.48771 6.08496 11H7C7.55228 11 8 11.4477 8 12C8 12.5523 7.55228 13 7 13H6.08496C6.50658 15.5122 8.48776 17.4934 11 17.915V17C11 16.4477 11.4477 16 12 16C12.5523 16 13 16.4477 13 17V17.915C15.5122 17.4934 17.4934 15.5122 17.915 13H17C16.4477 13 16 12.5523 16 12C16 11.4477 16.4477 11 17 11H17.915C17.4934 8.48771 15.5123 6.50554 13 6.08398V7Z"/>
  </symbol>
  <symbol id="target-filled" viewBox="0 0 24 24">
    <path fill="currentColor" fill-rule="evenodd" clip-rule="evenodd" d="M12 2C12.5523 2 13 2.44772 13 3V4.06348C16.6185 4.51479 19.4842 7.3815 19.9355 11H21C21.5523 11 22 11.4477 22 12C22 12.5523 21.5523 13 21 13H19.9355C19.4842 16.6185 16.6185 19.4842 13 19.9355V21C13 21.5523 12.5523 22 12 22C11.4477 22 11 21.5523 11 21V19.9355C7.38154 19.4842 4.51581 16.6185 4.06445 13H3C2.44772 13 2 12.5523 2 12C2 11.4477 2.44772 11 3 11H4.06445C4.51582 7.3815 7.38148 4.51479 11 4.06348V3C11 2.44772 11.4477 2 12 2ZM13 7C13 7.55228 12.5523 8 12 8C11.4477 8 11 7.55228 11 7V6.08398C8.48768 6.50554 6.50659 8.48771 6.08496 11H7C7.55228 11 8 11.4477 8 12C8 12.5523 7.55228 13 7 13H6.08496C6.50658 15.5122 8.48776 17.4934 11 17.915V17C11 16.4477 11.4477 16 12 16C12.5523 16 13 16.4477 13 17V17.915C15.5122 17.4934 17.4934 15.5122 17.915 13H17C16.4477 13 16 12.5523 16 12C16 11.4477 16.4477 11 17 11H17.915C17.4934 8.48771 15.5123 6.50554 13 6.08398V7Z"/>
  </symbol>

  <!-- Plus Shield Icons -->
  <symbol id="shield-outline" viewBox="0 0 24 24">
    <path fill="currentColor" d="M12 7.884a1 1 0 0 1 1 1v2h2a1 1 0 1 1 0 2h-2v2a1 1 0 0 1-2 0v-2H9a1 1 0 0 1 0-2h2v-2a1 1 0 0 1 1-1"/>
    <path fill="currentColor" fill-rule="evenodd" clip-rule="evenodd" d="M3.744 5.112a17.18 17.18 0 0 1 16.512 0c.458.251.744.733.744 1.256v3.876a12 12 0 0 1-6.234 10.524l-1.805.989-.113.057a2 2 0 0 1-1.809-.057l-1.805-.989A12 12 0 0 1 3 10.244V6.368c0-.523.286-1.005.744-1.256M19 6.711a15.18 15.18 0 0 0-14 0v3.533a10 10 0 0 0 5.195 8.77l1.805.989 1.805-.989A10 10 0 0 0 19 10.244z"/>
  </symbol>
  <symbol id="shield-filled" viewBox="0 0 24 24">
    <path fill="currentColor" fill-rule="evenodd" clip-rule="evenodd" d="M3.744 5.112a17.18 17.18 0 0 1 16.512 0c.458.251.744.733.744 1.256v3.876a12 12 0 0 1-6.234 10.524l-1.805.989a2 2 0 0 1-1.922 0l-1.805-.989A12 12 0 0 1 3 10.244V6.368c0-.523.286-1.005.744-1.256M12 7.884a1 1 0 0 0-1 1v2H9a1 1 0 1 0 0 2h2v2a1 1 0 0 0 2 0v-2h2a1 1 0 0 0 0-2h-2v-2a1 1 0 0 0-1-1"/>
  </symbol>

  <!-- Flame Icons -->
  <symbol id="flame-outline" viewBox="0 0 24 24">
    <path fill="currentColor" d="M10.71 21.92c.4.06.8.08 1.2.08 2.2 0 4.3-.85 5.79-2.38 2.13-2.18 3.23-6.73 1.31-10.28-.2-.36-.6-.57-1.01-.52a.99.99 0 0 0-.84.76c-.35 1.48-1.02 2.63-1.76 3-.06.03-.13.06-.19.08.48-2.64.68-7.81-4.22-10.53a1 1 0 0 0-1.04.04c-.31.2-.48.56-.45.94.17 1.71-1.09 3.29-2.42 4.96-1.96 2.46-4.41 5.53-2.27 9.83 1.17 2.19 3.32 3.65 5.89 4.02zM8.65 9.31c1.11-1.4 2.26-2.83 2.69-4.48 2.91 2.69 2.07 7.02 1.7 8.42-.13.48.11.98.56 1.17.91.4 1.84.38 2.7-.04.64-.32 1.21-.86 1.69-1.59.18 2.1-.55 4.25-1.71 5.44-1.32 1.35-3.29 1.99-5.28 1.71-1.94-.27-3.54-1.36-4.4-2.95-1.56-3.13.11-5.24 2.05-7.67z"/>
  </symbol>
  <symbol id="flame-filled" viewBox="0 0 24 24">
    <path fill="currentColor" d="M10.99 2.13a1 1 0 0 0-1.04.04c-.31.2-.48.56-.45.94.17 1.71-1.09 3.29-2.42 4.96-1.96 2.46-4.41 5.53-2.27 9.83 1.17 2.19 3.32 3.65 5.89 4.02.4.06.8.08 1.2.08 2.2 0 4.3-.85 5.79-2.38 2.13-2.18 3.23-6.73 1.31-10.28-.2-.36-.6-.57-1.01-.52a.99.99 0 0 0-.84.76c-.35 1.48-1.02 2.63-1.76 3-.06.03-.13.06-.19.08.48-2.64.68-7.81-4.22-10.53z"/>
  </symbol>

  <!-- Chart Line Icons -->
  <symbol id="chart-outline" viewBox="0 0 24 24">
    <path fill="currentColor" d="M20.25 4.96C20.01 3.83 18.98 3 17.81 3H6.2C5.03 3 4 3.82 3.76 4.96c-1 4.67-1 9.41 0 14.09.24 1.13 1.27 1.96 2.44 1.96h11.61c1.17 0 2.2-.82 2.44-1.96 1-4.67 1-9.41 0-14.09m-1.96 13.67c-.05.22-.25.37-.49.37H6.2c-.24 0-.44-.16-.49-.37-.94-4.4-.94-8.86 0-13.25.05-.22.25-.37.49-.37h11.61c.24 0 .44.16.49.37.94 4.4.94 8.86 0 13.25z"/>
    <path fill="currentColor" d="m15.19 8.92-1.94 2.71-2.19-1.46a1 1 0 0 0-1.37.25l-2.5 3.5A1.007 1.007 0 0 0 8 15.51c.31 0 .62-.15.81-.42l1.94-2.71 2.19 1.46c.45.3 1.05.19 1.37-.25l2.5-3.5c.32-.45.22-1.07-.23-1.4-.45-.32-1.07-.22-1.4.23z"/>
  </symbol>
  <symbol id="chart-filled" viewBox="0 0 24 24">
    <path fill="currentColor" d="M20.25 4.96C20.01 3.83 18.98 3 17.81 3H6.2C5.03 3 4 3.82 3.76 4.96c-1 4.67-1 9.41 0 14.09.24 1.13 1.27 1.96 2.44 1.96h11.61c1.17 0 2.2-.82 2.44-1.96 1-4.67 1-9.41 0-14.09m-3.44 5.12-2.5 3.5a1 1 0 0 1-1.37.25l-2.19-1.46-1.94 2.71c-.2.27-.5.42-.81.42a1.006 1.006 0 0 1-.81-1.59l2.5-3.5a1 1 0 0 1 1.37-.25l2.19 1.46 1.94-2.71c.32-.45.95-.55 1.4-.23s.55.95.23 1.4z"/>
  </symbol>

  <!-- Circle Handle Stardust Icons -->
  <symbol id="stardust-outline" viewBox="0 0 24 24">
    <path fill="currentColor" d="M18 11L17.9998 10.9454C18.6887 11.1007 19.4437 10.9244 19.9816 10.4195C19.9938 10.6114 20 10.805 20 11C20 13.125 19.2635 15.078 18.0319 16.6177L20.7071 19.2929C21.0976 19.6834 21.0976 20.3166 20.7071 20.7071C20.3166 21.0976 19.6834 21.0976 19.2929 20.7071L16.6177 18.0319C15.078 19.2635 13.125 20 11 20C6.02944 20 2 15.9706 2 11C2 6.02944 6.02944 2 11 2C12.5478 2 14.0044 2.39074 15.2765 3.07897L14.3214 3.48719C13.8564 3.68599 13.5139 4.00658 13.2942 4.38463C12.5755 4.1354 11.8036 4 11 4C7.13401 4 4 7.13401 4 11C4 14.866 7.13401 18 11 18C14.866 18 18 14.866 18 11Z"/>
    <path fill="currentColor" d="M19.0044 2.32673C18.8172 1.89109 18.198 1.89109 18.0109 2.32673L17.2956 3.99112C17.2409 4.11839 17.1393 4.21973 17.0117 4.27428L15.3276 4.99409C14.8931 5.17985 14.8901 5.79313 15.3228 5.98299L16.9428 6.69389C17.0645 6.74726 17.1621 6.84354 17.2172 6.96423L18.001 8.68404C18.1953 9.11038 18.8049 9.10375 18.9899 8.67331L19.7196 6.97501C19.7743 6.84774 19.876 6.7464 20.0036 6.69185L21.6724 5.97851C22.1092 5.79184 22.1092 5.17429 21.6724 4.98762L20.0036 4.27428C19.876 4.21973 19.7743 4.11839 19.7196 3.99112L19.0044 2.32673Z"/>
  </symbol>

  <!-- Info Circle Icons -->
  <symbol id="info-outline" viewBox="0 0 24 24">
    <path fill="currentColor" d="M12 10.2776C12.483 10.2779 12.875 10.6695 12.875 11.1526V16.1272C12.875 16.6103 12.483 17.0019 12 17.0022C11.5168 17.0022 11.125 16.6104 11.125 16.1272V11.1526C11.125 10.6693 11.5168 10.2776 12 10.2776Z"/>
    <path fill="currentColor" d="M12 7.00317C12.833 7.00333 13.25 7.40329 13.25 8.00317C13.2499 8.60293 12.8329 9.00302 12 9.00317C11.1668 9.00317 10.7501 8.60305 10.75 8.00317C10.75 7.40317 11.1667 7.00317 12 7.00317Z"/>
    <path fill="currentColor" fill-rule="evenodd" clip-rule="evenodd" d="M12 2.00024C17.5228 2.00024 22 6.4774 22 12.0002C22 17.5231 17.5228 22.0002 12 22.0002C6.47715 22.0002 2 17.5231 2 12.0002C2 6.4774 6.47715 2.00024 12 2.00024ZM12 4.00024C7.58172 4.00024 4 7.58197 4 12.0002C4 16.4185 7.58172 20.0002 12 20.0002C16.4183 20.0002 20 16.4185 20 12.0002C20 7.58197 16.4183 4.00024 12 4.00024Z"/>
  </symbol>

  <!-- Stardust Circle Filled (for gradient) -->
  <symbol id="stardust-circle" viewBox="0 0 24 24">
    <path fill="currentColor" d="M12 2C17.5228 2 22 6.47715 22 12C22 17.5228 17.5228 22 12 22C6.47715 22 2 17.5228 2 12C2 6.47715 6.47715 2 12 2ZM12.8643 6.56055C12.5434 5.81375 11.482 5.81375 11.1611 6.56055L9.93555 9.41309C9.84182 9.63127 9.66693 9.80492 9.44824 9.89844L6.56152 11.1328C5.81674 11.4513 5.81199 12.5027 6.55371 12.8281L9.33008 14.0469C9.53855 14.1383 9.70645 14.303 9.80078 14.5098L11.1445 17.458C11.4776 18.1888 12.5226 18.178 12.8398 17.4404L14.0908 14.5283C14.1846 14.3103 14.3586 14.1365 14.5771 14.043L17.4385 12.8203C18.1871 12.5003 18.187 11.4422 17.4385 11.1221L14.5771 9.89844C14.3586 9.80487 14.1845 9.63111 14.0908 9.41309L12.8643 6.56055Z"/>
  </symbol>
</svg>

