<svg xmlns="http://www.w3.org/2000/svg" fill="none" viewBox="0 0 24 24" width="24px" height="24px"><path fill="#000" d="M12 7.884a1 1 0 0 1 1 1v2h2a1 1 0 1 1 0 2h-2v2a1 1 0 0 1-2 0v-2H9a1 1 0 0 1 0-2h2v-2a1 1 0 0 1 1-1"/><path fill="#000" fill-rule="evenodd" d="M3.744 5.112a17.18 17.18 0 0 1 16.512 0c.458.251.744.733.744 1.256v3.876a12 12 0 0 1-6.234 10.524l-1.805.989-.113.057a2 2 0 0 1-1.809-.057l-1.805-.989A12 12 0 0 1 3 10.244V6.368c0-.523.286-1.005.744-1.256M19 6.711a15.18 15.18 0 0 0-14 0v3.533a10 10 0 0 0 5.195 8.77l1.805.989 1.805-.989A10 10 0 0 0 19 10.244z" clip-rule="evenodd"/></svg>