<svg xmlns="http://www.w3.org/2000/svg" fill="none" viewBox="0 0 24 24" width="24px" height="24px"><g clip-path="url(#a)"><path fill="#000" fill-rule="evenodd" d="M3.744 5.112a17.18 17.18 0 0 1 16.512 0c.458.251.744.733.744 1.256v3.876a12 12 0 0 1-6.234 10.524l-1.805.989a2 2 0 0 1-1.922 0l-1.805-.989A12 12 0 0 1 3 10.244V6.368c0-.523.286-1.005.744-1.256M12 7.884a1 1 0 0 0-1 1v2H9a1 1 0 1 0 0 2h2v2a1 1 0 0 0 2 0v-2h2a1 1 0 0 0 0-2h-2v-2a1 1 0 0 0-1-1" clip-rule="evenodd"/></g><defs><clipPath id="a"><path fill="#fff" d="M0 0h24v24H0z"/></clipPath></defs></svg>