<svg xmlns="http://www.w3.org/2000/svg" fill="none" viewBox="0 0 24 24" width="24px" height="24px"><path fill="#000" d="m13.45 15.11-3.04-1.52-1.52-3.04c-.34-.68-1.45-.68-1.79 0l-1.52 3.04-3.04 1.52a1 1 0 0 0-.55.89c0 .37.21.73.55.89l3.04 1.52 1.52 3.04a1 1 0 0 0 .89.55c.37 0 .73-.21.89-.55l1.52-3.04 3.04-1.52a1 1 0 0 0 .55-.89c0-.37-.21-.73-.55-.89zm-4.23 1.66c-.19.1-.35.25-.45.45L8 18.76l-.77-1.54c-.1-.19-.25-.35-.45-.45L5.24 16l1.54-.77c.19-.1.35-.25.45-.45L8 13.24l.77 1.54c.1.19.25.35.45.45l1.54.77zM8 5.5C8 7.43 9.57 9 11.5 9S15 7.43 15 5.5 13.43 2 11.5 2 8 3.57 8 5.5m5 0c0 .83-.67 1.5-1.5 1.5S10 6.33 10 5.5 10.67 4 11.5 4s1.5.67 1.5 1.5m7.22 2.55a1.008 1.008 0 0 0-1.64-.44l-4.33 4.04c-.27.25-.38.62-.29.97s.36.63.71.72l6.06 1.62c.09.02.17.03.26.03.27 0 .53-.11.72-.31.25-.26.34-.64.24-.99l-1.73-5.66zm-3.28 3.83 1.84-1.72.74 2.41z"/></svg>