<svg width="24" height="24" viewBox="0 0 24 24" fill="none" xmlns="http://www.w3.org/2000/svg">
<path d="M12 2C17.5228 2 22 6.47715 22 12C22 17.5228 17.5228 22 12 22C6.47715 22 2 17.5228 2 12C2 6.47715 6.47715 2 12 2ZM12.8643 6.56055C12.5434 5.81375 11.482 5.81375 11.1611 6.56055L9.93555 9.41309C9.84182 9.63127 9.66693 9.80492 9.44824 9.89844L6.56152 11.1328C5.81674 11.4513 5.81199 12.5027 6.55371 12.8281L9.33008 14.0469C9.53855 14.1383 9.70645 14.303 9.80078 14.5098L11.1445 17.458C11.4776 18.1888 12.5226 18.178 12.8398 17.4404L14.0908 14.5283C14.1846 14.3103 14.3586 14.1365 14.5771 14.043L17.4385 12.8203C18.1871 12.5003 18.187 11.4422 17.4385 11.1221L14.5771 9.89844C14.3586 9.80487 14.1845 9.63111 14.0908 9.41309L12.8643 6.56055Z" fill="black" style="fill:black;fill-opacity:1;"/>
</svg>
