<svg xmlns="http://www.w3.org/2000/svg" fill="none" viewBox="0 0 24 24" width="24px" height="24px"><path fill="#000" d="m7.11 10.55-1.52 3.04-3.04 1.52A1 1 0 0 0 2 16c0 .37.21.73.55.89l3.04 1.52 1.52 3.04A1 1 0 0 0 8 22c.37 0 .73-.21.89-.55l1.52-3.04 3.04-1.52A1 1 0 0 0 14 16c0-.37-.21-.73-.55-.89l-3.04-1.52-1.52-3.04c-.34-.68-1.45-.68-1.79 0zM11.5 9a3.5 3.5 0 1 0 0-7 3.5 3.5 0 0 0 0 7m8.72-.95a1.008 1.008 0 0 0-1.64-.44l-4.33 4.04c-.27.25-.38.62-.29.97s.36.63.71.72l6.06 1.62c.09.02.17.03.26.03.27 0 .53-.11.72-.31.25-.26.34-.64.24-.99l-1.73-5.66z"/></svg>