<svg xmlns="http://www.w3.org/2000/svg" fill="none" viewBox="0 0 24 24" width="24px" height="24px"><path fill="#000" fill-rule="evenodd" d="M8.186 12.847a8.5 8.5 0 0 1 2.209.354l.04.013q.086.027.171.056l.075.025a7 7 0 0 1 .393.153l.085.036a6 6 0 0 1 .378.183l.072.038q.084.045.166.094l.047.028q.182.11.35.232l.05.034c.678.5 1.188 1.15 1.433 1.952a3 3 0 0 1 .063.231l.018.081q.016.077.029.155.01.057.018.115l.012.107q.007.06.012.122.01.145.011.294v.733l-.005.156c-.062.774-.577 1.433-1.351 1.58l-.394.07c-.977.163-2.363.312-4.159.312l-.744-.009a24.5 24.5 0 0 1-3.415-.303l-.394-.07C2.531 19.462 2 18.723 2 17.883v-.733c0-2.871 2.955-4.307 5.91-4.307zm-.277 1.996c-1.19 0-2.265.295-2.974.755-.652.422-.935.919-.935 1.552v.552c.872.15 2.174.299 3.91.299 1.734 0 3.037-.15 3.908-.3v-.55c0-.634-.283-1.131-.934-1.553-.71-.46-1.784-.755-2.975-.755" clip-rule="evenodd"/><path fill="#000" d="M16.367 10.162c2.86.087 5.633 1.522 5.633 4.304v.732l-.006.156c-.061.775-.576 1.434-1.35 1.58l-.394.07c-.977.163-2.364.312-4.16.312l-.454-.005v-.16c0-.67-.111-1.285-.31-1.846q.367.01.765.011c1.735 0 3.037-.15 3.909-.3v-.55c0-.634-.283-1.13-.935-1.553-.71-.46-1.784-.755-2.974-.755-1.034 0-1.98.224-2.676.583a7 7 0 0 0-.443-.316 8 8 0 0 0-1.517-.756c1.136-1.007 2.886-1.51 4.636-1.51z"/><path fill="#000" fill-rule="evenodd" d="M7.91 5.685c1.756 0 3.18 1.402 3.18 3.131l-.003.162c-.086 1.654-1.476 2.969-3.178 2.97-1.702 0-3.092-1.316-3.178-2.97l-.003-.162c0-1.73 1.424-3.131 3.181-3.131m0 2c-.684 0-1.182.536-1.182 1.131s.499 1.131 1.181 1.131c.683 0 1.181-.536 1.182-1.13 0-.596-.5-1.132-1.182-1.132M16.09 3c1.758 0 3.183 1.402 3.183 3.132l-.004.161c-.086 1.654-1.476 2.97-3.178 2.97s-3.093-1.316-3.178-2.97l-.004-.161C12.91 4.402 14.334 3 16.091 3m0 2c-.682 0-1.18.537-1.18 1.132s.498 1.13 1.18 1.13c.683 0 1.182-.535 1.183-1.13 0-.595-.5-1.132-1.182-1.132" clip-rule="evenodd"/></svg>