<svg xmlns="http://www.w3.org/2000/svg" fill="none" viewBox="0 0 24 24" width="24px" height="24px"><path fill="#000" d="M7.91 12.843c.851 0 1.703.12 2.485.358l.05.016q.135.042.266.089l.07.025q.155.057.305.121l.05.023q.124.054.246.113l.08.04q.128.064.252.135l.036.02q.143.084.278.174l.034.023q.124.084.24.173l.033.026q.125.098.242.205l.035.033a4 4 0 0 1 .436.468q.06.078.117.159l.04.06a4 4 0 0 1 .115.18 3.5 3.5 0 0 1 .354.818l.018.07a3.6 3.6 0 0 1 .126.965v.746c0 .84-.53 1.58-1.356 1.736-.983.187-2.5.381-4.553.381s-3.57-.194-4.553-.38C2.531 19.461 2 18.722 2 17.882v-.733c0-2.872 2.955-4.307 5.91-4.307m8.18-2.684c2.955 0 5.91 1.436 5.91 4.308v.732c0 .84-.53 1.58-1.356 1.737-.984.186-2.501.38-4.553.38q-.233-.001-.455-.005v-.16c0-2.14-1.14-3.737-2.664-4.725a8 8 0 0 0-1.517-.756c1.136-1.007 2.886-1.51 4.636-1.51M7.91 5.685c1.756 0 3.18 1.402 3.18 3.131 0 1.73-1.424 3.131-3.18 3.131-1.758 0-3.182-1.401-3.182-3.13 0-1.73 1.424-3.132 3.181-3.132M16.09 3c1.758 0 3.183 1.402 3.183 3.132s-1.425 3.13-3.182 3.13-3.182-1.4-3.182-3.13S14.334 3 16.091 3"/></svg>