<svg xmlns="http://www.w3.org/2000/svg" fill="none" viewBox="0 0 24 24" width="24px" height="24px"><path fill="#000" d="M16.97 9.168a6.5 6.5 0 0 1-1.47 12.831 6.5 6.5 0 0 1-6.331-5.03 8.5 8.5 0 0 0 1.963-.388 4.5 4.5 0 0 0 1.339 2.242c.666-.531 1.675-.823 3.029-.823 1.355 0 2.364.292 3.03.824a4.5 4.5 0 0 0-1.948-7.693 8.5 8.5 0 0 0 .389-1.963"/><path fill="#000" d="M15.5 13a2 2 0 1 1 0 4 2 2 0 0 1 0-4m-7-7a2 2 0 1 1 0 4 2 2 0 0 1 0-4"/><path fill="#000" fill-rule="evenodd" d="M8.5 2a6.5 6.5 0 1 1 0 13 6.5 6.5 0 0 1 0-13m0 2a4.5 4.5 0 0 0-3.032 7.825C6.134 11.293 7.144 11 8.5 11s2.365.293 3.031.825A4.5 4.5 0 0 0 8.5 4" clip-rule="evenodd"/></svg>